<mxfile host="Electron" modified="2024-06-14T13:42:57.818Z" agent="Mozilla/5.0 (Windows NT 10.0; Win64; x64) AppleWebKit/537.36 (KHTML, like Gecko) draw.io/24.5.1 Chrome/124.0.6367.207 Electron/30.0.6 Safari/537.36" etag="QydAXR6CWUwh2MzgR-oB" version="24.5.1" type="device">
  <diagram name="Page-1" id="ccfY9DI8_qomHA-bcHzg">
    <mxGraphModel dx="780" dy="496" grid="1" gridSize="10" guides="1" tooltips="1" connect="1" arrows="1" fold="1" page="1" pageScale="1" pageWidth="827" pageHeight="1169" math="0" shadow="0">
      <root>
        <mxCell id="0" />
        <mxCell id="1" parent="0" />
        <mxCell id="hRpvT4joR0tUktlyTJyf-1" value="Read Note&lt;div&gt;&lt;br&gt;&lt;/div&gt;" style="ellipse;whiteSpace=wrap;html=1;" parent="1" vertex="1">
          <mxGeometry x="330" y="210" width="140" height="70" as="geometry" />
        </mxCell>
        <mxCell id="hRpvT4joR0tUktlyTJyf-2" value="Update Note" style="ellipse;whiteSpace=wrap;html=1;" parent="1" vertex="1">
          <mxGeometry x="330" y="310" width="140" height="70" as="geometry" />
        </mxCell>
        <mxCell id="hRpvT4joR0tUktlyTJyf-3" value="Delete Note" style="ellipse;whiteSpace=wrap;html=1;" parent="1" vertex="1">
          <mxGeometry x="330" y="400" width="140" height="70" as="geometry" />
        </mxCell>
        <mxCell id="hRpvT4joR0tUktlyTJyf-4" value="Create Note&lt;div&gt;&lt;br&gt;&lt;/div&gt;" style="ellipse;whiteSpace=wrap;html=1;" parent="1" vertex="1">
          <mxGeometry x="330" y="100" width="140" height="70" as="geometry" />
        </mxCell>
        <mxCell id="hRpvT4joR0tUktlyTJyf-6" value="User&lt;div&gt;&lt;br&gt;&lt;/div&gt;" style="shape=umlActor;verticalLabelPosition=bottom;verticalAlign=top;html=1;" parent="1" vertex="1">
          <mxGeometry x="100" y="220" width="30" height="60" as="geometry" />
        </mxCell>
        <mxCell id="hRpvT4joR0tUktlyTJyf-7" value="" style="endArrow=open;endFill=1;endSize=12;html=1;rounded=0;entryX=0.014;entryY=0.71;entryDx=0;entryDy=0;entryPerimeter=0;exitX=0.778;exitY=0.483;exitDx=0;exitDy=0;exitPerimeter=0;" parent="1" source="hRpvT4joR0tUktlyTJyf-6" target="hRpvT4joR0tUktlyTJyf-4" edge="1">
          <mxGeometry width="160" relative="1" as="geometry">
            <mxPoint x="140" y="240" as="sourcePoint" />
            <mxPoint x="300" y="240" as="targetPoint" />
          </mxGeometry>
        </mxCell>
        <mxCell id="hRpvT4joR0tUktlyTJyf-8" value="" style="endArrow=open;endFill=1;endSize=12;html=1;rounded=0;entryX=-0.057;entryY=0.481;entryDx=0;entryDy=0;entryPerimeter=0;exitX=0.778;exitY=0.506;exitDx=0;exitDy=0;exitPerimeter=0;" parent="1" source="hRpvT4joR0tUktlyTJyf-6" target="hRpvT4joR0tUktlyTJyf-1" edge="1">
          <mxGeometry width="160" relative="1" as="geometry">
            <mxPoint x="150" y="250" as="sourcePoint" />
            <mxPoint x="342" y="160" as="targetPoint" />
          </mxGeometry>
        </mxCell>
        <mxCell id="hRpvT4joR0tUktlyTJyf-9" value="" style="endArrow=open;endFill=1;endSize=12;html=1;rounded=0;entryX=-0.029;entryY=0.271;entryDx=0;entryDy=0;entryPerimeter=0;" parent="1" source="hRpvT4joR0tUktlyTJyf-6" target="hRpvT4joR0tUktlyTJyf-2" edge="1">
          <mxGeometry width="160" relative="1" as="geometry">
            <mxPoint x="160" y="260" as="sourcePoint" />
            <mxPoint x="332" y="254" as="targetPoint" />
          </mxGeometry>
        </mxCell>
        <mxCell id="hRpvT4joR0tUktlyTJyf-11" value="" style="endArrow=open;endFill=1;endSize=12;html=1;rounded=0;exitX=0.778;exitY=0.506;exitDx=0;exitDy=0;exitPerimeter=0;" parent="1" source="hRpvT4joR0tUktlyTJyf-6" edge="1">
          <mxGeometry width="160" relative="1" as="geometry">
            <mxPoint x="140" y="266" as="sourcePoint" />
            <mxPoint x="320" y="420" as="targetPoint" />
          </mxGeometry>
        </mxCell>
      </root>
    </mxGraphModel>
  </diagram>
</mxfile>
